<svg width="21" height="26" viewBox="0 0 21 26" fill="none" xmlns="http://www.w3.org/2000/svg">
<path d="M2.33642 22.592H18.8369C19.1853 22.5921 19.5207 22.7244 19.7752 22.9623C20.0298 23.2001 20.1846 23.5257 20.2083 23.8733C20.2321 24.2209 20.123 24.5645 19.9032 24.8347C19.6833 25.105 19.3691 25.2817 19.0239 25.3292L18.8369 25.3421H2.33642C1.98803 25.3419 1.65267 25.2096 1.3981 24.9718C1.14353 24.7339 0.988738 24.4083 0.964992 24.0607C0.941246 23.7132 1.05032 23.3695 1.27018 23.0993C1.49003 22.829 1.80427 22.6523 2.14941 22.6048L2.33642 22.592H18.8369H2.33642ZM10.3997 0.604119L10.5867 0.591286C10.9189 0.5913 11.24 0.711634 11.4904 0.930036C11.7408 1.14844 11.9037 1.45013 11.9489 1.77932L11.9617 1.96633V16.0614L16.096 11.929C16.3292 11.6959 16.6383 11.5543 16.9671 11.5301C17.2959 11.5059 17.6224 11.6006 17.8872 11.797L18.0412 11.929C18.2743 12.1621 18.4159 12.4713 18.4401 12.8001C18.4643 13.1288 18.3696 13.4554 18.1732 13.7202L18.0412 13.8742L11.5584 20.3552C11.3255 20.5881 11.0169 20.7297 10.6885 20.7543C10.3601 20.7788 10.0338 20.6847 9.76898 20.4891L9.61497 20.3552L3.13211 13.8742C2.88608 13.6288 2.74206 13.2994 2.729 12.9522C2.71594 12.605 2.83482 12.2657 3.06173 12.0026C3.28863 11.7395 3.60675 11.572 3.95211 11.5338C4.29746 11.4957 4.64446 11.5897 4.92333 11.797L5.07733 11.929L9.21163 16.0651V1.96633C9.21164 1.63405 9.33198 1.31301 9.55038 1.06259C9.76878 0.812174 10.0705 0.649309 10.3997 0.604119L10.5867 0.591286L10.3997 0.604119Z" fill="#2F6BB1"/>
</svg>
