<svg width="12" height="12" viewBox="0 0 12 12" fill="none" xmlns="http://www.w3.org/2000/svg">
<path fill-rule="evenodd" clip-rule="evenodd" d="M5.05262 10.7894C5.05262 10.6219 4.98608 10.4613 4.86764 10.3428C4.74919 10.2244 4.58855 10.1579 4.42104 10.1579H1.26316V1.31577H4.42104C4.58855 1.31577 4.74919 1.24923 4.86764 1.13078C4.98608 1.01234 5.05262 0.851695 5.05262 0.68419C5.05262 0.516685 4.98608 0.356041 4.86764 0.237597C4.74919 0.119153 4.58855 0.0526123 4.42104 0.0526123H1.26316C0.928146 0.0526123 0.606857 0.185694 0.36997 0.422582C0.133082 0.659469 0 0.980758 0 1.31577V10.1579C0 10.4929 0.133082 10.8142 0.36997 11.051C0.606857 11.2879 0.928146 11.421 1.26316 11.421H4.42104C4.58855 11.421 4.74919 11.3545 4.86764 11.236C4.98608 11.1176 5.05262 10.9569 5.05262 10.7894Z" fill="#2F6BB1"/>
<path d="M11.8194 6.17892C11.9349 6.06149 11.9998 5.90344 12 5.73871V5.73492C11.9997 5.56805 11.9332 5.40812 11.815 5.29029L9.28868 2.76398C9.23042 2.70366 9.16073 2.65554 9.08368 2.62244C9.00662 2.58934 8.92374 2.57192 8.83988 2.57119C8.75602 2.57046 8.67286 2.58644 8.59524 2.6182C8.51762 2.64995 8.4471 2.69685 8.3878 2.75615C8.3285 2.81545 8.28161 2.88597 8.24985 2.96359C8.21809 3.04121 8.20211 3.12437 8.20284 3.20823C8.20357 3.29209 8.22099 3.37497 8.2541 3.45202C8.2872 3.52908 8.33531 3.59877 8.39563 3.65703L9.84384 5.10524H3.78954C3.62203 5.10524 3.46139 5.17178 3.34294 5.29022C3.2245 5.40867 3.15796 5.56931 3.15796 5.73682C3.15796 5.90432 3.2245 6.06496 3.34294 6.18341C3.46139 6.30185 3.62203 6.36839 3.78954 6.36839H9.84384L8.39563 7.8166C8.28058 7.93572 8.21693 8.09526 8.21836 8.26085C8.2198 8.42645 8.28623 8.58486 8.40333 8.70196C8.52043 8.81906 8.67883 8.88548 8.84443 8.88692C9.01003 8.88836 9.16957 8.8247 9.28868 8.70965L11.815 6.18334L11.8194 6.17892Z" fill="#2F6BB1"/>
</svg>
