<svg width="12" height="18" viewBox="0 0 12 18" fill="none" xmlns="http://www.w3.org/2000/svg">
<path d="M1.10265 0.959606C0.951626 1.10316 0.831807 1.27367 0.750054 1.46138C0.668302 1.64909 0.626221 1.85031 0.626221 2.05353C0.626221 2.25675 0.668302 2.45798 0.750054 2.64569C0.831807 2.8334 0.951626 3.00391 1.10265 3.14746L7.42371 9.16794L1.10265 15.1884C0.79804 15.4786 0.62691 15.872 0.626909 16.2824C0.626909 16.6927 0.798039 17.0862 1.10265 17.3763C1.40726 17.6664 1.82041 17.8294 2.2512 17.8294C2.68198 17.8294 3.09513 17.6664 3.39974 17.3763L10.8775 10.2541C11.0285 10.1106 11.1483 9.94005 11.2301 9.75234C11.3118 9.56463 11.3539 9.36341 11.3539 9.16018C11.3539 8.95697 11.3118 8.75574 11.2301 8.56803C11.1483 8.38032 11.0285 8.20981 10.8775 8.06626L3.39974 0.944089C2.78067 0.354455 1.73802 0.354455 1.10265 0.959606Z" fill="#C7D6EC"/>
</svg>
