<svg width="25" height="28" viewBox="0 0 25 28" fill="none" xmlns="http://www.w3.org/2000/svg">
<path d="M16.5833 21.158H8.08333M16.5833 21.158H23.6667L21.6762 19.1676C21.409 18.9002 21.1969 18.5828 21.0523 18.2335C20.9077 17.8842 20.8333 17.5099 20.8333 17.1318V12.658C20.8335 10.8998 20.2887 9.1848 19.2739 7.74907C18.2591 6.31335 16.8241 5.22751 15.1667 4.64106V4.15798C15.1667 3.40653 14.8682 2.68586 14.3368 2.15451C13.8054 1.62316 13.0848 1.32465 12.3333 1.32465C11.5819 1.32465 10.8612 1.62316 10.3299 2.15451C9.79851 2.68586 9.5 3.40653 9.5 4.15798V4.64106C6.19917 5.8084 3.83333 8.95765 3.83333 12.658V17.1332C3.83333 17.8954 3.53017 18.6278 2.99042 19.1676L1 21.158H8.08333H16.5833ZM16.5833 21.158V22.5746C16.5833 23.7018 16.1356 24.7828 15.3385 25.5798C14.5415 26.3769 13.4605 26.8246 12.3333 26.8246C11.2062 26.8246 10.1252 26.3769 9.32813 25.5798C8.5311 24.7828 8.08333 23.7018 8.08333 22.5746V21.158H16.5833Z" stroke="#348EE0" stroke-width="2" stroke-linecap="round" stroke-linejoin="round"/>
</svg>
