<svg width="29" height="33" viewBox="0 0 29 33" fill="none" xmlns="http://www.w3.org/2000/svg">
<path d="M23.75 11.3334H26.8333C27.2422 11.3334 27.6343 11.4958 27.9235 11.7849C28.2126 12.074 28.375 12.4661 28.375 12.875V31.375C28.375 31.7839 28.2126 32.176 27.9235 32.4651C27.6343 32.7543 27.2422 32.9167 26.8333 32.9167H2.16667C1.75779 32.9167 1.36566 32.7543 1.07654 32.4651C0.787425 32.176 0.625 31.7839 0.625 31.375V12.875C0.625 12.4661 0.787425 12.074 1.07654 11.7849C1.36566 11.4958 1.75779 11.3334 2.16667 11.3334H5.25V9.79169C5.25 7.33843 6.22455 4.98566 7.95926 3.25095C9.69397 1.51624 12.0467 0.541687 14.5 0.541687C16.9533 0.541687 19.306 1.51624 21.0407 3.25095C22.7754 4.98566 23.75 7.33843 23.75 9.79169V11.3334ZM3.70833 14.4167V29.8334H25.2917V14.4167H3.70833ZM12.9583 20.5834H16.0417V23.6667H12.9583V20.5834ZM6.79167 20.5834H9.875V23.6667H6.79167V20.5834ZM19.125 20.5834H22.2083V23.6667H19.125V20.5834ZM20.6667 11.3334V9.79169C20.6667 8.15618 20.017 6.58767 18.8605 5.43119C17.704 4.27472 16.1355 3.62502 14.5 3.62502C12.8645 3.62502 11.296 4.27472 10.1395 5.43119C8.98303 6.58767 8.33333 8.15618 8.33333 9.79169V11.3334H20.6667Z" fill="#2391F5"/>
</svg>
