<svg width="12" height="18" viewBox="0 0 12 18" fill="none" xmlns="http://www.w3.org/2000/svg">
<path d="M11.1222 17.3736C11.2732 17.2301 11.393 17.0596 11.4748 16.8719C11.5566 16.6842 11.5986 16.4829 11.5986 16.2797C11.5986 16.0765 11.5566 15.8753 11.4748 15.6876C11.393 15.4999 11.2732 15.3293 11.1222 15.1858L4.80114 9.16531L11.1222 3.14483C11.4268 2.8547 11.5979 2.4612 11.5979 2.0509C11.5979 1.6406 11.4268 1.2471 11.1222 0.95697C10.8176 0.666842 10.4044 0.503853 9.97366 0.503853C9.54287 0.503853 9.12973 0.666842 8.82511 0.956971L1.34736 8.07914C1.19633 8.22269 1.07651 8.3932 0.994762 8.58091C0.913009 8.76862 0.87093 8.96985 0.87093 9.17307C0.87093 9.37629 0.913009 9.57751 0.994762 9.76522C1.07651 9.95293 1.19633 10.1234 1.34736 10.267L8.82511 17.3892C9.44419 17.9788 10.4868 17.9788 11.1222 17.3736Z" fill="#C7D6EC"/>
</svg>
