<svg width="13" height="12" viewBox="0 0 13 12" fill="none" xmlns="http://www.w3.org/2000/svg">
<path d="M7.10857 0.544887C7.19783 0.587048 7.27009 0.65641 7.31401 0.742093L7.10857 0.544887ZM7.10857 0.544887C6.88471 0.438803 6.61267 0.527206 6.50074 0.742093L7.10857 0.544887ZM8.47741 4.10008L8.59602 4.3309L8.85305 4.36676L12.322 4.85071L9.82588 7.18677L9.62753 7.37241L9.67534 7.63983L10.2694 10.9625L7.13265 9.37946L6.90738 9.26577L6.6821 9.37946L3.5454 10.9625L4.13942 7.63983L4.18722 7.37241L3.98887 7.18677L1.49274 4.85071L4.96171 4.36676L5.21873 4.3309L5.33735 4.10008L6.90738 1.04473L8.47741 4.10008ZM1.36319 4.86878L1.36332 4.86876L1.36319 4.86878ZM6.86929 0.970619C6.86924 0.97051 6.86918 0.970401 6.86912 0.970292L6.86929 0.970619Z" stroke="#2391F5"/>
</svg>
