<svg width="13" height="12" viewBox="0 0 13 12" fill="none" xmlns="http://www.w3.org/2000/svg">
<path d="M12.5195 4.37341L8.92213 3.87156L7.31401 0.742093C7.27009 0.65641 7.19783 0.587048 7.10857 0.544887C6.88471 0.438803 6.61267 0.527206 6.50074 0.742093L4.89262 3.87156L1.29526 4.37341C1.19608 4.38701 1.1054 4.43189 1.03598 4.4999C0.952045 4.58271 0.905794 4.69411 0.907389 4.80964C0.908983 4.92516 0.95829 5.03535 1.04448 5.116L3.64722 7.55184L3.03231 10.9914C3.01789 11.0714 3.02711 11.1537 3.05893 11.2289C3.09076 11.3042 3.1439 11.3693 3.21235 11.4171C3.28079 11.4648 3.36179 11.4931 3.44617 11.4989C3.53055 11.5047 3.61492 11.4876 3.68972 11.4497L6.90738 9.82583L10.125 11.4497C10.2129 11.4946 10.3149 11.5096 10.4127 11.4932C10.6592 11.4524 10.825 11.228 10.7824 10.9914L10.1675 7.55184L12.7703 5.116C12.8411 5.04936 12.8879 4.96231 12.902 4.86711C12.9403 4.6291 12.7674 4.40877 12.5195 4.37341Z" fill="#85B6FF"/>
</svg>
