<svg width="23" height="24" viewBox="0 0 23 24" fill="none" xmlns="http://www.w3.org/2000/svg">
<path d="M9.58332 17.75C11.2843 17.7497 12.9363 17.1802 14.2763 16.1323L18.4891 20.3452L19.8442 18.9901L15.6314 14.7773C16.6798 13.4372 17.2496 11.7848 17.25 10.0833C17.25 5.85613 13.8105 2.41667 9.58332 2.41667C5.35612 2.41667 1.91666 5.85613 1.91666 10.0833C1.91666 14.3105 5.35612 17.75 9.58332 17.75ZM9.58332 4.33333C12.7544 4.33333 15.3333 6.91221 15.3333 10.0833C15.3333 13.2545 12.7544 15.8333 9.58332 15.8333C6.4122 15.8333 3.83332 13.2545 3.83332 10.0833C3.83332 6.91221 6.4122 4.33333 9.58332 4.33333Z" fill="#2B99FF"/>
<path d="M10.9365 8.72825C11.2997 9.09242 11.5 9.5735 11.5 10.0833H13.4167C13.4175 9.57966 13.3185 9.08081 13.1254 8.61563C12.9323 8.15045 12.6489 7.72816 12.2916 7.37317C10.8407 5.92416 8.32505 5.92416 6.87509 7.37317L8.22826 8.73017C8.95659 8.00375 10.212 8.00567 10.9365 8.72825Z" fill="#B3D5F4"/>
</svg>
