<svg width="29" height="29" viewBox="0 0 29 29" fill="none" xmlns="http://www.w3.org/2000/svg">
<path d="M5.25 22.2083C5.25 19.125 11.4167 17.4292 14.5 17.4292C17.5833 17.4292 23.75 19.125 23.75 22.2083V23.75H5.25V22.2083ZM19.125 9.875C19.125 11.1016 18.6377 12.278 17.7704 13.1454C16.903 14.0127 15.7266 14.5 14.5 14.5C13.2734 14.5 12.097 14.0127 11.2296 13.1454C10.3623 12.278 9.875 11.1016 9.875 9.875C9.875 8.64837 10.3623 7.47199 11.2296 6.60463C12.097 5.73728 13.2734 5.25 14.5 5.25C15.7266 5.25 16.903 5.73728 17.7704 6.60463C18.6377 7.47199 19.125 8.64837 19.125 9.875ZM0.625 3.70833V25.2917C0.625 26.1094 0.94985 26.8937 1.52809 27.4719C2.10632 28.0501 2.89058 28.375 3.70833 28.375H25.2917C26.1094 28.375 26.8937 28.0501 27.4719 27.4719C28.0501 26.8937 28.375 26.1094 28.375 25.2917V3.70833C28.375 2.89058 28.0501 2.10632 27.4719 1.52809C26.8937 0.94985 26.1094 0.625 25.2917 0.625H3.70833C2.89058 0.625 2.10632 0.94985 1.52809 1.52809C0.94985 2.10632 0.625 2.89058 0.625 3.70833Z" fill="#2391F5"/>
</svg>
